<?xml version="1.0" encoding="UTF-8" standalone="no"?>
<!DOCTYPE svg PUBLIC "-//W3C//DTD SVG 1.1//EN"
 "http://www.w3.org/Graphics/SVG/1.1/DTD/svg11.dtd">
<!-- Generated by graphviz version 2.50.0 (20211204.2007)
 -->
<!-- Title: G Pages: 1 -->
<svg width="1411pt" height="795pt"
 viewBox="0.00 0.00 1411.20 794.76" xmlns="http://www.w3.org/2000/svg" xmlns:xlink="http://www.w3.org/1999/xlink">
<g id="graph0" class="graph" transform="scale(1 1) rotate(0) translate(21.6 773.16)">
<title>G</title>
<polygon fill="#111111" stroke="transparent" points="-21.6,21.6 -21.6,-773.16 1389.6,-773.16 1389.6,21.6 -21.6,21.6"/>
<!-- src/public/components/VueComponent1/index.vue -->
<g id="node1" class="node">
<title>src/public/components/VueComponent1/index.vue</title>
<path fill="none" stroke="#c6c5fe" d="M519.33,-600C519.33,-600 215.67,-600 215.67,-600 211.83,-600 208,-596.17 208,-592.33 208,-592.33 208,-584.67 208,-584.67 208,-580.83 211.83,-577 215.67,-577 215.67,-577 519.33,-577 519.33,-577 523.17,-577 527,-580.83 527,-584.67 527,-584.67 527,-592.33 527,-592.33 527,-596.17 523.17,-600 519.33,-600"/>
<text text-anchor="middle" x="367.5" y="-584.8" font-family="Arial" font-size="14.00" fill="#c6c5fe">src/public/components/VueComponent1/index.vue</text>
</g>
<!-- src/public/components/VueComponent2/index.vue -->
<g id="node2" class="node">
<title>src/public/components/VueComponent2/index.vue</title>
<path fill="none" stroke="#c6c5fe" d="M876.33,-541C876.33,-541 572.67,-541 572.67,-541 568.83,-541 565,-537.17 565,-533.33 565,-533.33 565,-525.67 565,-525.67 565,-521.83 568.83,-518 572.67,-518 572.67,-518 876.33,-518 876.33,-518 880.17,-518 884,-521.83 884,-525.67 884,-525.67 884,-533.33 884,-533.33 884,-537.17 880.17,-541 876.33,-541"/>
<text text-anchor="middle" x="724.5" y="-525.8" font-family="Arial" font-size="14.00" fill="#c6c5fe">src/public/components/VueComponent2/index.vue</text>
</g>
<!-- src/public/components/VueComponent1/index.vue&#45;&gt;src/public/components/VueComponent2/index.vue -->
<g id="edge1" class="edge">
<title>src/public/components/VueComponent1/index.vue&#45;&gt;src/public/components/VueComponent2/index.vue</title>
<path fill="none" stroke="#757575" d="M422.83,-576.94C461.75,-568.88 515.46,-558.25 563,-550.5 580.67,-547.62 599.48,-544.87 617.78,-542.37"/>
<polygon fill="#757575" stroke="#757575" points="618.44,-545.82 627.88,-541.01 617.5,-538.88 618.44,-545.82"/>
</g>
<!-- src/public/methods/request.js -->
<g id="node3" class="node">
<title>src/public/methods/request.js</title>
<path fill="none" stroke="#c6c5fe" d="M812.83,-418C812.83,-418 636.17,-418 636.17,-418 632.33,-418 628.5,-414.17 628.5,-410.33 628.5,-410.33 628.5,-402.67 628.5,-402.67 628.5,-398.83 632.33,-395 636.17,-395 636.17,-395 812.83,-395 812.83,-395 816.67,-395 820.5,-398.83 820.5,-402.67 820.5,-402.67 820.5,-410.33 820.5,-410.33 820.5,-414.17 816.67,-418 812.83,-418"/>
<text text-anchor="middle" x="724.5" y="-402.8" font-family="Arial" font-size="14.00" fill="#c6c5fe">src/public/methods/request.js</text>
</g>
<!-- src/public/components/VueComponent1/index.vue&#45;&gt;src/public/methods/request.js -->
<g id="edge2" class="edge">
<title>src/public/components/VueComponent1/index.vue&#45;&gt;src/public/methods/request.js</title>
<path fill="none" stroke="#757575" d="M470.31,-576.99C491.15,-570.5 511.44,-560.58 527,-545.5 566.37,-507.34 521.15,-462.92 563,-427.5 578.58,-414.32 598.23,-406.92 618.4,-403.09"/>
<polygon fill="#757575" stroke="#757575" points="619.01,-406.54 628.32,-401.49 617.89,-399.63 619.01,-406.54"/>
</g>
<!-- src/public/css/dosome.scss -->
<g id="node4" class="node">
<title>src/public/css/dosome.scss</title>
<path fill="none" stroke="#c6c5fe" d="M807.33,-705C807.33,-705 641.67,-705 641.67,-705 637.83,-705 634,-701.17 634,-697.33 634,-697.33 634,-689.67 634,-689.67 634,-685.83 637.83,-682 641.67,-682 641.67,-682 807.33,-682 807.33,-682 811.17,-682 815,-685.83 815,-689.67 815,-689.67 815,-697.33 815,-697.33 815,-701.17 811.17,-705 807.33,-705"/>
<text text-anchor="middle" x="724.5" y="-689.8" font-family="Arial" font-size="14.00" fill="#c6c5fe">src/public/css/dosome.scss</text>
</g>
<!-- src/public/components/VueComponent1/index.vue&#45;&gt;src/public/css/dosome.scss -->
<g id="edge3" class="edge">
<title>src/public/components/VueComponent1/index.vue&#45;&gt;src/public/css/dosome.scss</title>
<path fill="none" stroke="#757575" d="M389.35,-600.02C424.18,-618.7 496.9,-655.35 563,-673.5 582.43,-678.84 603.58,-682.75 623.95,-685.62"/>
<polygon fill="#757575" stroke="#757575" points="623.51,-689.1 633.88,-686.95 624.44,-682.16 623.51,-689.1"/>
</g>
<!-- src/public/components/VueComponent1/css&#45;bg.jpg -->
<g id="node5" class="node">
<title>src/public/components/VueComponent1/css&#45;bg.jpg</title>
<path fill="none" stroke="#cfffac" d="M878.33,-664C878.33,-664 570.67,-664 570.67,-664 566.83,-664 563,-660.17 563,-656.33 563,-656.33 563,-648.67 563,-648.67 563,-644.83 566.83,-641 570.67,-641 570.67,-641 878.33,-641 878.33,-641 882.17,-641 886,-644.83 886,-648.67 886,-648.67 886,-656.33 886,-656.33 886,-660.17 882.17,-664 878.33,-664"/>
<text text-anchor="middle" x="724.5" y="-648.8" font-family="Arial" font-size="14.00" fill="#cfffac">src/public/components/VueComponent1/css&#45;bg.jpg</text>
</g>
<!-- src/public/components/VueComponent1/index.vue&#45;&gt;src/public/components/VueComponent1/css&#45;bg.jpg -->
<g id="edge4" class="edge">
<title>src/public/components/VueComponent1/index.vue&#45;&gt;src/public/components/VueComponent1/css&#45;bg.jpg</title>
<path fill="none" stroke="#757575" d="M413.83,-600.09C453.09,-609.8 511.51,-623.49 563,-632.5 577.75,-635.08 593.32,-637.45 608.72,-639.59"/>
<polygon fill="#757575" stroke="#757575" points="608.43,-643.09 618.81,-640.97 609.37,-636.15 608.43,-643.09"/>
</g>
<!-- src/public/components/VueComponent1/some.jpg -->
<g id="node6" class="node">
<title>src/public/components/VueComponent1/some.jpg</title>
<path fill="none" stroke="#cfffac" d="M875.33,-623C875.33,-623 573.67,-623 573.67,-623 569.83,-623 566,-619.17 566,-615.33 566,-615.33 566,-607.67 566,-607.67 566,-603.83 569.83,-600 573.67,-600 573.67,-600 875.33,-600 875.33,-600 879.17,-600 883,-603.83 883,-607.67 883,-607.67 883,-615.33 883,-615.33 883,-619.17 879.17,-623 875.33,-623"/>
<text text-anchor="middle" x="724.5" y="-607.8" font-family="Arial" font-size="14.00" fill="#cfffac">src/public/components/VueComponent1/some.jpg</text>
</g>
<!-- src/public/components/VueComponent1/index.vue&#45;&gt;src/public/components/VueComponent1/some.jpg -->
<g id="edge5" class="edge">
<title>src/public/components/VueComponent1/index.vue&#45;&gt;src/public/components/VueComponent1/some.jpg</title>
<path fill="none" stroke="#757575" d="M527.05,-598.77C536.65,-599.39 546.32,-600.02 555.96,-600.65"/>
<polygon fill="#757575" stroke="#757575" points="555.77,-604.14 565.98,-601.29 556.23,-597.16 555.77,-604.14"/>
</g>
<!-- src/public/images/cat.jpg -->
<g id="node7" class="node">
<title>src/public/images/cat.jpg</title>
<path fill="none" stroke="#cfffac" d="M1092.83,-500C1092.83,-500 943.17,-500 943.17,-500 939.33,-500 935.5,-496.17 935.5,-492.33 935.5,-492.33 935.5,-484.67 935.5,-484.67 935.5,-480.83 939.33,-477 943.17,-477 943.17,-477 1092.83,-477 1092.83,-477 1096.67,-477 1100.5,-480.83 1100.5,-484.67 1100.5,-484.67 1100.5,-492.33 1100.5,-492.33 1100.5,-496.17 1096.67,-500 1092.83,-500"/>
<text text-anchor="middle" x="1018" y="-484.8" font-family="Arial" font-size="14.00" fill="#cfffac">src/public/images/cat.jpg</text>
</g>
<!-- src/public/components/VueComponent2/index.vue&#45;&gt;src/public/images/cat.jpg -->
<g id="edge6" class="edge">
<title>src/public/components/VueComponent2/index.vue&#45;&gt;src/public/images/cat.jpg</title>
<path fill="none" stroke="#757575" d="M822.33,-517.99C843.34,-515.34 865.43,-512.43 886,-509.5 902.87,-507.1 920.93,-504.33 938.08,-501.61"/>
<polygon fill="#757575" stroke="#757575" points="938.74,-505.05 948.06,-500.01 937.63,-498.14 938.74,-505.05"/>
</g>
<!-- src/public/utils/getAjaxData.js -->
<g id="node10" class="node">
<title>src/public/utils/getAjaxData.js</title>
<path fill="none" stroke="#c6c5fe" d="M1106.33,-418C1106.33,-418 929.67,-418 929.67,-418 925.83,-418 922,-414.17 922,-410.33 922,-410.33 922,-402.67 922,-402.67 922,-398.83 925.83,-395 929.67,-395 929.67,-395 1106.33,-395 1106.33,-395 1110.17,-395 1114,-398.83 1114,-402.67 1114,-402.67 1114,-410.33 1114,-410.33 1114,-414.17 1110.17,-418 1106.33,-418"/>
<text text-anchor="middle" x="1018" y="-402.8" font-family="Arial" font-size="14.00" fill="#c6c5fe">src/public/utils/getAjaxData.js</text>
</g>
<!-- src/public/methods/request.js&#45;&gt;src/public/utils/getAjaxData.js -->
<g id="edge9" class="edge">
<title>src/public/methods/request.js&#45;&gt;src/public/utils/getAjaxData.js</title>
<path fill="none" stroke="#757575" d="M820.54,-406.5C849.53,-406.5 881.56,-406.5 911.21,-406.5"/>
<polygon fill="#757575" stroke="#757575" points="911.59,-410 921.59,-406.5 911.59,-403 911.59,-410"/>
</g>
<!-- src/public/css/dosome.scss&#45;&gt;src/public/images/cat.jpg -->
<g id="edge7" class="edge">
<title>src/public/css/dosome.scss&#45;&gt;src/public/images/cat.jpg</title>
<path fill="none" stroke="#757575" d="M815.17,-695.31C839.5,-692.45 864.92,-686.12 886,-673.5 951.1,-634.54 992.44,-549.35 1008.89,-509.65"/>
<polygon fill="#757575" stroke="#757575" points="1012.22,-510.75 1012.7,-500.16 1005.72,-508.14 1012.22,-510.75"/>
</g>
<!-- src/public/css/public.scss -->
<g id="node8" class="node">
<title>src/public/css/public.scss</title>
<path fill="none" stroke="#c6c5fe" d="M800.33,-94C800.33,-94 648.67,-94 648.67,-94 644.83,-94 641,-90.17 641,-86.33 641,-86.33 641,-78.67 641,-78.67 641,-74.83 644.83,-71 648.67,-71 648.67,-71 800.33,-71 800.33,-71 804.17,-71 808,-74.83 808,-78.67 808,-78.67 808,-86.33 808,-86.33 808,-90.17 804.17,-94 800.33,-94"/>
<text text-anchor="middle" x="724.5" y="-78.8" font-family="Arial" font-size="14.00" fill="#c6c5fe">src/public/css/public.scss</text>
</g>
<!-- src/public/css/_reset.scss -->
<g id="node9" class="node">
<title>src/public/css/_reset.scss</title>
<path fill="none" stroke="#cfffac" d="M1095.33,-94C1095.33,-94 940.67,-94 940.67,-94 936.83,-94 933,-90.17 933,-86.33 933,-86.33 933,-78.67 933,-78.67 933,-74.83 936.83,-71 940.67,-71 940.67,-71 1095.33,-71 1095.33,-71 1099.17,-71 1103,-74.83 1103,-78.67 1103,-78.67 1103,-86.33 1103,-86.33 1103,-90.17 1099.17,-94 1095.33,-94"/>
<text text-anchor="middle" x="1018" y="-78.8" font-family="Arial" font-size="14.00" fill="#cfffac">src/public/css/_reset.scss</text>
</g>
<!-- src/public/css/public.scss&#45;&gt;src/public/css/_reset.scss -->
<g id="edge8" class="edge">
<title>src/public/css/public.scss&#45;&gt;src/public/css/_reset.scss</title>
<path fill="none" stroke="#757575" d="M808.25,-82.5C843.87,-82.5 885.7,-82.5 922.53,-82.5"/>
<polygon fill="#757575" stroke="#757575" points="922.77,-86 932.77,-82.5 922.77,-79 922.77,-86"/>
</g>
<!-- src/public/utils/jsonToFormData.js -->
<g id="node11" class="node">
<title>src/public/utils/jsonToFormData.js</title>
<path fill="none" stroke="#cfffac" d="M1360.33,-418C1360.33,-418 1157.67,-418 1157.67,-418 1153.83,-418 1150,-414.17 1150,-410.33 1150,-410.33 1150,-402.67 1150,-402.67 1150,-398.83 1153.83,-395 1157.67,-395 1157.67,-395 1360.33,-395 1360.33,-395 1364.17,-395 1368,-398.83 1368,-402.67 1368,-402.67 1368,-410.33 1368,-410.33 1368,-414.17 1364.17,-418 1360.33,-418"/>
<text text-anchor="middle" x="1259" y="-402.8" font-family="Arial" font-size="14.00" fill="#cfffac">src/public/utils/jsonToFormData.js</text>
</g>
<!-- src/public/utils/getAjaxData.js&#45;&gt;src/public/utils/jsonToFormData.js -->
<g id="edge10" class="edge">
<title>src/public/utils/getAjaxData.js&#45;&gt;src/public/utils/jsonToFormData.js</title>
<path fill="none" stroke="#757575" d="M1114.15,-406.5C1122.57,-406.5 1131.16,-406.5 1139.74,-406.5"/>
<polygon fill="#757575" stroke="#757575" points="1139.79,-410 1149.79,-406.5 1139.79,-403 1139.79,-410"/>
</g>
<!-- src/views/folder1/page1.html -->
<g id="node12" class="node">
<title>src/views/folder1/page1.html</title>
<path fill="none" stroke="#c6c5fe" d="M453.83,-64C453.83,-64 281.17,-64 281.17,-64 277.33,-64 273.5,-60.17 273.5,-56.33 273.5,-56.33 273.5,-48.67 273.5,-48.67 273.5,-44.83 277.33,-41 281.17,-41 281.17,-41 453.83,-41 453.83,-41 457.67,-41 461.5,-44.83 461.5,-48.67 461.5,-48.67 461.5,-56.33 461.5,-56.33 461.5,-60.17 457.67,-64 453.83,-64"/>
<text text-anchor="middle" x="367.5" y="-48.8" font-family="Arial" font-size="14.00" fill="#c6c5fe">src/views/folder1/page1.html</text>
</g>
<!-- src/views/folder1/images/aa.jpg -->
<g id="node13" class="node">
<title>src/views/folder1/images/aa.jpg</title>
<path fill="none" stroke="#cfffac" d="M819.83,-53C819.83,-53 629.17,-53 629.17,-53 625.33,-53 621.5,-49.17 621.5,-45.33 621.5,-45.33 621.5,-37.67 621.5,-37.67 621.5,-33.83 625.33,-30 629.17,-30 629.17,-30 819.83,-30 819.83,-30 823.67,-30 827.5,-33.83 827.5,-37.67 827.5,-37.67 827.5,-45.33 827.5,-45.33 827.5,-49.17 823.67,-53 819.83,-53"/>
<text text-anchor="middle" x="724.5" y="-37.8" font-family="Arial" font-size="14.00" fill="#cfffac">src/views/folder1/images/aa.jpg</text>
</g>
<!-- src/views/folder1/page1.html&#45;&gt;src/views/folder1/images/aa.jpg -->
<g id="edge11" class="edge">
<title>src/views/folder1/page1.html&#45;&gt;src/views/folder1/images/aa.jpg</title>
<path fill="none" stroke="#757575" d="M461.77,-49.61C507.61,-48.19 563.2,-46.47 611.34,-44.98"/>
<polygon fill="#757575" stroke="#757575" points="611.61,-48.47 621.5,-44.66 611.39,-41.47 611.61,-48.47"/>
</g>
<!-- src/views/folder1/page1.js -->
<g id="node14" class="node">
<title>src/views/folder1/page1.js</title>
<path fill="none" stroke="#ff6c60" d="M164.33,-64C164.33,-64 7.67,-64 7.67,-64 3.83,-64 0,-60.17 0,-56.33 0,-56.33 0,-48.67 0,-48.67 0,-44.83 3.83,-41 7.67,-41 7.67,-41 164.33,-41 164.33,-41 168.17,-41 172,-44.83 172,-48.67 172,-48.67 172,-56.33 172,-56.33 172,-60.17 168.17,-64 164.33,-64"/>
<text text-anchor="middle" x="86" y="-48.8" font-family="Arial" font-size="14.00" fill="#ff6c60">src/views/folder1/page1.js</text>
</g>
<!-- src/views/folder1/page1.js&#45;&gt;src/views/folder1/page1.html -->
<g id="edge15" class="edge">
<title>src/views/folder1/page1.js&#45;&gt;src/views/folder1/page1.html</title>
<path fill="none" stroke="#757575" d="M172.38,-52.5C201.08,-52.5 233.41,-52.5 263.33,-52.5"/>
<polygon fill="#757575" stroke="#757575" points="263.38,-56 273.38,-52.5 263.38,-49 263.38,-56"/>
</g>
<!-- src/views/folder1/page1.js&#45;&gt;src/views/folder1/page1.js -->
<g id="edge14" class="edge">
<title>src/views/folder1/page1.js&#45;&gt;src/views/folder1/page1.js</title>
<path fill="none" stroke="#757575" d="M40.28,-64.01C23.18,-72.91 38.42,-82 86,-82 119.45,-82 136.92,-77.51 138.4,-71.74"/>
<polygon fill="#757575" stroke="#757575" points="140.9,-69.29 131.72,-64.01 135.6,-73.86 140.9,-69.29"/>
</g>
<!-- src/views/folder1/page1.scss -->
<g id="node15" class="node">
<title>src/views/folder1/page1.scss</title>
<path fill="none" stroke="#c6c5fe" d="M454.33,-125C454.33,-125 280.67,-125 280.67,-125 276.83,-125 273,-121.17 273,-117.33 273,-117.33 273,-109.67 273,-109.67 273,-105.83 276.83,-102 280.67,-102 280.67,-102 454.33,-102 454.33,-102 458.17,-102 462,-105.83 462,-109.67 462,-109.67 462,-117.33 462,-117.33 462,-121.17 458.17,-125 454.33,-125"/>
<text text-anchor="middle" x="367.5" y="-109.8" font-family="Arial" font-size="14.00" fill="#c6c5fe">src/views/folder1/page1.scss</text>
</g>
<!-- src/views/folder1/page1.js&#45;&gt;src/views/folder1/page1.scss -->
<g id="edge12" class="edge">
<title>src/views/folder1/page1.js&#45;&gt;src/views/folder1/page1.scss</title>
<path fill="none" stroke="#757575" d="M139.9,-64.05C186.39,-74.19 254.13,-88.98 303.43,-99.73"/>
<polygon fill="#757575" stroke="#757575" points="302.82,-103.19 313.34,-101.9 304.32,-96.35 302.82,-103.19"/>
</g>
<!-- src/views/folder1/page1.vue -->
<g id="node16" class="node">
<title>src/views/folder1/page1.vue</title>
<path fill="none" stroke="#cfffac" d="M451.83,-23C451.83,-23 283.17,-23 283.17,-23 279.33,-23 275.5,-19.17 275.5,-15.33 275.5,-15.33 275.5,-7.67 275.5,-7.67 275.5,-3.83 279.33,0 283.17,0 283.17,0 451.83,0 451.83,0 455.67,0 459.5,-3.83 459.5,-7.67 459.5,-7.67 459.5,-15.33 459.5,-15.33 459.5,-19.17 455.67,-23 451.83,-23"/>
<text text-anchor="middle" x="367.5" y="-7.8" font-family="Arial" font-size="14.00" fill="#cfffac">src/views/folder1/page1.vue</text>
</g>
<!-- src/views/folder1/page1.js&#45;&gt;src/views/folder1/page1.vue -->
<g id="edge13" class="edge">
<title>src/views/folder1/page1.js&#45;&gt;src/views/folder1/page1.vue</title>
<path fill="none" stroke="#757575" d="M150.02,-40.99C168.66,-37.74 189.13,-34.33 208,-31.5 226.57,-28.72 246.4,-26.01 265.53,-23.53"/>
<polygon fill="#757575" stroke="#757575" points="265.99,-27 275.46,-22.25 265.1,-20.06 265.99,-27"/>
</g>
<!-- src/views/folder1/page1.scss&#45;&gt;src/public/css/public.scss -->
<g id="edge16" class="edge">
<title>src/views/folder1/page1.scss&#45;&gt;src/public/css/public.scss</title>
<path fill="none" stroke="#757575" d="M462.24,-105.31C514.23,-100.77 578.67,-95.15 630.55,-90.62"/>
<polygon fill="#757575" stroke="#757575" points="631.09,-94.08 640.75,-89.73 630.48,-87.11 631.09,-94.08"/>
</g>
<!-- src/views/folder1/images/tes.jpg -->
<g id="node17" class="node">
<title>src/views/folder1/images/tes.jpg</title>
<path fill="none" stroke="#cfffac" d="M821.33,-135C821.33,-135 627.67,-135 627.67,-135 623.83,-135 620,-131.17 620,-127.33 620,-127.33 620,-119.67 620,-119.67 620,-115.83 623.83,-112 627.67,-112 627.67,-112 821.33,-112 821.33,-112 825.17,-112 829,-115.83 829,-119.67 829,-119.67 829,-127.33 829,-127.33 829,-131.17 825.17,-135 821.33,-135"/>
<text text-anchor="middle" x="724.5" y="-119.8" font-family="Arial" font-size="14.00" fill="#cfffac">src/views/folder1/images/tes.jpg</text>
</g>
<!-- src/views/folder1/page1.scss&#45;&gt;src/views/folder1/images/tes.jpg -->
<g id="edge17" class="edge">
<title>src/views/folder1/page1.scss&#45;&gt;src/views/folder1/images/tes.jpg</title>
<path fill="none" stroke="#757575" d="M462.24,-116.14C507.5,-117.42 562.18,-118.96 609.81,-120.3"/>
<polygon fill="#757575" stroke="#757575" points="609.76,-123.8 619.85,-120.58 609.96,-116.8 609.76,-123.8"/>
</g>
<!-- src/views/folder2/page2.html -->
<g id="node18" class="node">
<title>src/views/folder2/page2.html</title>
<path fill="none" stroke="#cfffac" d="M810.83,-459C810.83,-459 638.17,-459 638.17,-459 634.33,-459 630.5,-455.17 630.5,-451.33 630.5,-451.33 630.5,-443.67 630.5,-443.67 630.5,-439.83 634.33,-436 638.17,-436 638.17,-436 810.83,-436 810.83,-436 814.67,-436 818.5,-439.83 818.5,-443.67 818.5,-443.67 818.5,-451.33 818.5,-451.33 818.5,-455.17 814.67,-459 810.83,-459"/>
<text text-anchor="middle" x="724.5" y="-443.8" font-family="Arial" font-size="14.00" fill="#cfffac">src/views/folder2/page2.html</text>
</g>
<!-- src/views/folder2/page2.js -->
<g id="node19" class="node">
<title>src/views/folder2/page2.js</title>
<path fill="none" stroke="#ff6c60" d="M445.83,-459C445.83,-459 289.17,-459 289.17,-459 285.33,-459 281.5,-455.17 281.5,-451.33 281.5,-451.33 281.5,-443.67 281.5,-443.67 281.5,-439.83 285.33,-436 289.17,-436 289.17,-436 445.83,-436 445.83,-436 449.67,-436 453.5,-439.83 453.5,-443.67 453.5,-443.67 453.5,-451.33 453.5,-451.33 453.5,-455.17 449.67,-459 445.83,-459"/>
<text text-anchor="middle" x="367.5" y="-443.8" font-family="Arial" font-size="14.00" fill="#ff6c60">src/views/folder2/page2.js</text>
</g>
<!-- src/views/folder2/page2.js&#45;&gt;src/public/components/VueComponent2/index.vue -->
<g id="edge18" class="edge">
<title>src/views/folder2/page2.js&#45;&gt;src/public/components/VueComponent2/index.vue</title>
<path fill="none" stroke="#757575" d="M436.01,-459.02C464.75,-465.21 498.22,-474.16 527,-486.5 544.45,-493.98 545.14,-503.06 563,-509.5 569.07,-511.69 575.34,-513.65 581.73,-515.4"/>
<polygon fill="#757575" stroke="#757575" points="581.29,-518.9 591.85,-517.98 583.02,-512.11 581.29,-518.9"/>
</g>
<!-- src/views/folder2/page2.js&#45;&gt;src/public/methods/request.js -->
<g id="edge19" class="edge">
<title>src/views/folder2/page2.js&#45;&gt;src/public/methods/request.js</title>
<path fill="none" stroke="#757575" d="M453.53,-437.68C502.96,-431.97 565.66,-424.73 618.19,-418.66"/>
<polygon fill="#757575" stroke="#757575" points="618.69,-422.13 628.22,-417.5 617.88,-415.17 618.69,-422.13"/>
</g>
<!-- src/views/folder2/page2.js&#45;&gt;src/views/folder2/page2.html -->
<g id="edge21" class="edge">
<title>src/views/folder2/page2.js&#45;&gt;src/views/folder2/page2.html</title>
<path fill="none" stroke="#757575" d="M453.53,-447.5C503.63,-447.5 567.38,-447.5 620.34,-447.5"/>
<polygon fill="#757575" stroke="#757575" points="620.44,-451 630.44,-447.5 620.44,-444 620.44,-451"/>
</g>
<!-- src/views/folder2/page2.js&#45;&gt;src/views/folder2/page2.js -->
<g id="edge20" class="edge">
<title>src/views/folder2/page2.js&#45;&gt;src/views/folder2/page2.js</title>
<path fill="none" stroke="#757575" d="M321.78,-459.01C304.68,-467.91 319.92,-477 367.5,-477 400.95,-477 418.42,-472.51 419.9,-466.74"/>
<polygon fill="#757575" stroke="#757575" points="422.4,-464.29 413.22,-459.01 417.1,-468.86 422.4,-464.29"/>
</g>
<!-- src/views/folder3/page3.html -->
<g id="node20" class="node">
<title>src/views/folder3/page3.html</title>
<path fill="none" stroke="#c6c5fe" d="M810.83,-582C810.83,-582 638.17,-582 638.17,-582 634.33,-582 630.5,-578.17 630.5,-574.33 630.5,-574.33 630.5,-566.67 630.5,-566.67 630.5,-562.83 634.33,-559 638.17,-559 638.17,-559 810.83,-559 810.83,-559 814.67,-559 818.5,-562.83 818.5,-566.67 818.5,-566.67 818.5,-574.33 818.5,-574.33 818.5,-578.17 814.67,-582 810.83,-582"/>
<text text-anchor="middle" x="724.5" y="-566.8" font-family="Arial" font-size="14.00" fill="#c6c5fe">src/views/folder3/page3.html</text>
</g>
<!-- src/views/folder3/page3.html&#45;&gt;src/public/images/cat.jpg -->
<g id="edge22" class="edge">
<title>src/views/folder3/page3.html&#45;&gt;src/public/images/cat.jpg</title>
<path fill="none" stroke="#757575" d="M818.61,-563.98C840.96,-561.02 864.56,-556.73 886,-550.5 923.01,-539.74 962.64,-519.65 988.49,-505.26"/>
<polygon fill="#757575" stroke="#757575" points="990.38,-508.21 997.37,-500.24 986.94,-502.12 990.38,-508.21"/>
</g>
<!-- src/views/folder3/page3.js -->
<g id="node21" class="node">
<title>src/views/folder3/page3.js</title>
<path fill="none" stroke="#ff6c60" d="M445.83,-518C445.83,-518 289.17,-518 289.17,-518 285.33,-518 281.5,-514.17 281.5,-510.33 281.5,-510.33 281.5,-502.67 281.5,-502.67 281.5,-498.83 285.33,-495 289.17,-495 289.17,-495 445.83,-495 445.83,-495 449.67,-495 453.5,-498.83 453.5,-502.67 453.5,-502.67 453.5,-510.33 453.5,-510.33 453.5,-514.17 449.67,-518 445.83,-518"/>
<text text-anchor="middle" x="367.5" y="-502.8" font-family="Arial" font-size="14.00" fill="#ff6c60">src/views/folder3/page3.js</text>
</g>
<!-- src/views/folder3/page3.js&#45;&gt;src/public/methods/request.js -->
<g id="edge23" class="edge">
<title>src/views/folder3/page3.js&#45;&gt;src/public/methods/request.js</title>
<path fill="none" stroke="#757575" d="M453.51,-509.5C478.79,-506.91 505.46,-500.44 527,-486.5 552.79,-469.81 537.25,-444.24 563,-427.5 579.43,-416.82 598.81,-410.4 618.32,-406.71"/>
<polygon fill="#757575" stroke="#757575" points="618.92,-410.16 628.21,-405.07 617.77,-403.25 618.92,-410.16"/>
</g>
<!-- src/views/folder3/page3.js&#45;&gt;src/views/folder3/page3.html -->
<g id="edge26" class="edge">
<title>src/views/folder3/page3.js&#45;&gt;src/views/folder3/page3.html</title>
<path fill="none" stroke="#757575" d="M413.83,-518.09C453.09,-527.8 511.51,-541.49 563,-550.5 581.49,-553.74 601.27,-556.64 620.4,-559.18"/>
<polygon fill="#757575" stroke="#757575" points="619.97,-562.65 630.33,-560.47 620.87,-555.71 619.97,-562.65"/>
</g>
<!-- src/views/folder3/page3.js&#45;&gt;src/views/folder3/page3.js -->
<g id="edge25" class="edge">
<title>src/views/folder3/page3.js&#45;&gt;src/views/folder3/page3.js</title>
<path fill="none" stroke="#757575" d="M321.78,-518.01C304.68,-526.91 319.92,-536 367.5,-536 400.95,-536 418.42,-531.51 419.9,-525.74"/>
<polygon fill="#757575" stroke="#757575" points="422.4,-523.29 413.22,-518.01 417.1,-527.86 422.4,-523.29"/>
</g>
<!-- src/views/folder3/page3.scss -->
<g id="node22" class="node">
<title>src/views/folder3/page3.scss</title>
<path fill="none" stroke="#cfffac" d="M811.33,-500C811.33,-500 637.67,-500 637.67,-500 633.83,-500 630,-496.17 630,-492.33 630,-492.33 630,-484.67 630,-484.67 630,-480.83 633.83,-477 637.67,-477 637.67,-477 811.33,-477 811.33,-477 815.17,-477 819,-480.83 819,-484.67 819,-484.67 819,-492.33 819,-492.33 819,-496.17 815.17,-500 811.33,-500"/>
<text text-anchor="middle" x="724.5" y="-484.8" font-family="Arial" font-size="14.00" fill="#cfffac">src/views/folder3/page3.scss</text>
</g>
<!-- src/views/folder3/page3.js&#45;&gt;src/views/folder3/page3.scss -->
<g id="edge24" class="edge">
<title>src/views/folder3/page3.js&#45;&gt;src/views/folder3/page3.scss</title>
<path fill="none" stroke="#757575" d="M453.53,-502.19C503.44,-499.66 566.89,-496.44 619.73,-493.76"/>
<polygon fill="#757575" stroke="#757575" points="620,-497.25 629.81,-493.25 619.64,-490.26 620,-497.25"/>
</g>
<!-- src/views/folder4/page4.html -->
<g id="node23" class="node">
<title>src/views/folder4/page4.html</title>
<path fill="none" stroke="#c6c5fe" d="M810.83,-336C810.83,-336 638.17,-336 638.17,-336 634.33,-336 630.5,-332.17 630.5,-328.33 630.5,-328.33 630.5,-320.67 630.5,-320.67 630.5,-316.83 634.33,-313 638.17,-313 638.17,-313 810.83,-313 810.83,-313 814.67,-313 818.5,-316.83 818.5,-320.67 818.5,-320.67 818.5,-328.33 818.5,-328.33 818.5,-332.17 814.67,-336 810.83,-336"/>
<text text-anchor="middle" x="724.5" y="-320.8" font-family="Arial" font-size="14.00" fill="#c6c5fe">src/views/folder4/page4.html</text>
</g>
<!-- src/views/folder4/page4.html&#45;&gt;src/public/images/cat.jpg -->
<g id="edge27" class="edge">
<title>src/views/folder4/page4.html&#45;&gt;src/public/images/cat.jpg</title>
<path fill="none" stroke="#757575" d="M818.67,-320.85C842.49,-323.95 866.78,-331.08 886,-345.5 917.84,-369.38 896.15,-397.23 922,-427.5 938.26,-446.54 961.96,-461.77 981.61,-472.25"/>
<polygon fill="#757575" stroke="#757575" points="980.11,-475.41 990.6,-476.87 983.31,-469.19 980.11,-475.41"/>
</g>
<!-- src/views/folder4/page4.js -->
<g id="node24" class="node">
<title>src/views/folder4/page4.js</title>
<path fill="none" stroke="#ff6c60" d="M445.83,-360C445.83,-360 289.17,-360 289.17,-360 285.33,-360 281.5,-356.17 281.5,-352.33 281.5,-352.33 281.5,-344.67 281.5,-344.67 281.5,-340.83 285.33,-337 289.17,-337 289.17,-337 445.83,-337 445.83,-337 449.67,-337 453.5,-340.83 453.5,-344.67 453.5,-344.67 453.5,-352.33 453.5,-352.33 453.5,-356.17 449.67,-360 445.83,-360"/>
<text text-anchor="middle" x="367.5" y="-344.8" font-family="Arial" font-size="14.00" fill="#ff6c60">src/views/folder4/page4.js</text>
</g>
<!-- src/views/folder4/page4.js&#45;&gt;src/public/methods/request.js -->
<g id="edge28" class="edge">
<title>src/views/folder4/page4.js&#45;&gt;src/public/methods/request.js</title>
<path fill="none" stroke="#757575" d="M422.4,-360.07C461.34,-368.17 515.27,-378.87 563,-386.5 580.78,-389.34 599.72,-392.01 618.13,-394.42"/>
<polygon fill="#757575" stroke="#757575" points="617.93,-397.93 628.29,-395.74 618.82,-390.98 617.93,-397.93"/>
</g>
<!-- src/views/folder4/page4.js&#45;&gt;src/views/folder4/page4.html -->
<g id="edge31" class="edge">
<title>src/views/folder4/page4.js&#45;&gt;src/views/folder4/page4.html</title>
<path fill="none" stroke="#757575" d="M453.53,-342.75C503.63,-339.36 567.38,-335.05 620.34,-331.47"/>
<polygon fill="#757575" stroke="#757575" points="620.7,-334.96 630.44,-330.79 620.22,-327.97 620.7,-334.96"/>
</g>
<!-- src/views/folder4/page4.js&#45;&gt;src/views/folder4/page4.js -->
<g id="edge30" class="edge">
<title>src/views/folder4/page4.js&#45;&gt;src/views/folder4/page4.js</title>
<path fill="none" stroke="#757575" d="M321.78,-360.01C304.68,-368.91 319.92,-378 367.5,-378 400.95,-378 418.42,-373.51 419.9,-367.74"/>
<polygon fill="#757575" stroke="#757575" points="422.4,-365.29 413.22,-360.01 417.1,-369.86 422.4,-365.29"/>
</g>
<!-- src/views/folder4/page4.scss -->
<g id="node25" class="node">
<title>src/views/folder4/page4.scss</title>
<path fill="none" stroke="#cfffac" d="M811.33,-377C811.33,-377 637.67,-377 637.67,-377 633.83,-377 630,-373.17 630,-369.33 630,-369.33 630,-361.67 630,-361.67 630,-357.83 633.83,-354 637.67,-354 637.67,-354 811.33,-354 811.33,-354 815.17,-354 819,-357.83 819,-361.67 819,-361.67 819,-369.33 819,-369.33 819,-373.17 815.17,-377 811.33,-377"/>
<text text-anchor="middle" x="724.5" y="-361.8" font-family="Arial" font-size="14.00" fill="#cfffac">src/views/folder4/page4.scss</text>
</g>
<!-- src/views/folder4/page4.js&#45;&gt;src/views/folder4/page4.scss -->
<g id="edge29" class="edge">
<title>src/views/folder4/page4.js&#45;&gt;src/views/folder4/page4.scss</title>
<path fill="none" stroke="#757575" d="M453.53,-352.57C503.44,-354.96 566.89,-358 619.73,-360.53"/>
<polygon fill="#757575" stroke="#757575" points="619.65,-364.03 629.81,-361.01 619.98,-357.04 619.65,-364.03"/>
</g>
<!-- src/views/folder5/page5.html -->
<g id="node26" class="node">
<title>src/views/folder5/page5.html</title>
<path fill="none" stroke="#c6c5fe" d="M453.83,-195C453.83,-195 281.17,-195 281.17,-195 277.33,-195 273.5,-191.17 273.5,-187.33 273.5,-187.33 273.5,-179.67 273.5,-179.67 273.5,-175.83 277.33,-172 281.17,-172 281.17,-172 453.83,-172 453.83,-172 457.67,-172 461.5,-175.83 461.5,-179.67 461.5,-179.67 461.5,-187.33 461.5,-187.33 461.5,-191.17 457.67,-195 453.83,-195"/>
<text text-anchor="middle" x="367.5" y="-179.8" font-family="Arial" font-size="14.00" fill="#c6c5fe">src/views/folder5/page5.html</text>
</g>
<!-- src/views/folder5/page5.html&#45;&gt;src/public/images/cat.jpg -->
<g id="edge32" class="edge">
<title>src/views/folder5/page5.html&#45;&gt;src/public/images/cat.jpg</title>
<path fill="none" stroke="#757575" d="M442.58,-172C569.63,-154.07 821.66,-126.93 886,-182.5 969.29,-254.44 862.34,-335.02 922,-427.5 935.03,-447.69 957.36,-462.53 977.1,-472.52"/>
<polygon fill="#757575" stroke="#757575" points="975.71,-475.73 986.24,-476.9 978.73,-469.42 975.71,-475.73"/>
</g>
<!-- src/views/folder5/page5.js -->
<g id="node27" class="node">
<title>src/views/folder5/page5.js</title>
<path fill="none" stroke="#ff6c60" d="M164.33,-336C164.33,-336 7.67,-336 7.67,-336 3.83,-336 0,-332.17 0,-328.33 0,-328.33 0,-320.67 0,-320.67 0,-316.83 3.83,-313 7.67,-313 7.67,-313 164.33,-313 164.33,-313 168.17,-313 172,-316.83 172,-320.67 172,-320.67 172,-328.33 172,-328.33 172,-332.17 168.17,-336 164.33,-336"/>
<text text-anchor="middle" x="86" y="-320.8" font-family="Arial" font-size="14.00" fill="#ff6c60">src/views/folder5/page5.js</text>
</g>
<!-- src/views/folder5/page5.js&#45;&gt;src/public/components/VueComponent1/index.vue -->
<g id="edge33" class="edge">
<title>src/views/folder5/page5.js&#45;&gt;src/public/components/VueComponent1/index.vue</title>
<path fill="none" stroke="#757575" d="M89.9,-336.23C99.65,-373.13 134.82,-487.83 208,-545.5 224.72,-558.68 245.18,-567.83 265.76,-574.18"/>
<polygon fill="#757575" stroke="#757575" points="264.96,-577.59 275.54,-576.99 266.89,-570.86 264.96,-577.59"/>
</g>
<!-- src/views/folder5/page5.js&#45;&gt;src/public/methods/request.js -->
<g id="edge35" class="edge">
<title>src/views/folder5/page5.js&#45;&gt;src/public/methods/request.js</title>
<path fill="none" stroke="#757575" d="M103.64,-336.25C126.1,-351.36 167.93,-376.91 208,-387.5 346.19,-424.03 512.44,-422.4 618.05,-415.99"/>
<polygon fill="#757575" stroke="#757575" points="618.32,-419.48 628.07,-415.35 617.87,-412.49 618.32,-419.48"/>
</g>
<!-- src/views/folder5/page5.js&#45;&gt;src/public/images/cat.jpg -->
<g id="edge34" class="edge">
<title>src/views/folder5/page5.js&#45;&gt;src/public/images/cat.jpg</title>
<path fill="none" stroke="#757575" d="M88.39,-336.02C94.18,-378.97 120.36,-531.31 208,-609.5 330.78,-719.03 400.16,-690.92 563,-714.5 705.07,-735.07 761.62,-786.17 886,-714.5 964.56,-669.23 1000.31,-556.83 1012.21,-509.76"/>
<polygon fill="#757575" stroke="#757575" points="1015.61,-510.56 1014.56,-500.02 1008.81,-508.91 1015.61,-510.56"/>
</g>
<!-- src/views/folder5/page5.js&#45;&gt;src/views/folder1/page1.scss -->
<g id="edge36" class="edge">
<title>src/views/folder5/page5.js&#45;&gt;src/views/folder1/page1.scss</title>
<path fill="none" stroke="#757575" d="M92.49,-312.71C106.98,-282.92 149.2,-203.99 208,-162.5 231.37,-146.01 260.46,-134.94 287.31,-127.56"/>
<polygon fill="#757575" stroke="#757575" points="288.3,-130.92 297.09,-125.01 286.53,-124.15 288.3,-130.92"/>
</g>
<!-- src/views/folder5/page5.js&#45;&gt;src/views/folder5/page5.html -->
<g id="edge39" class="edge">
<title>src/views/folder5/page5.js&#45;&gt;src/views/folder5/page5.html</title>
<path fill="none" stroke="#757575" d="M97.05,-312.91C116.33,-291.44 160.78,-245.5 208,-221.5 229.19,-210.73 253.54,-202.94 276.69,-197.33"/>
<polygon fill="#757575" stroke="#757575" points="277.57,-200.71 286.53,-195.05 276,-193.89 277.57,-200.71"/>
</g>
<!-- src/views/folder5/page5.js&#45;&gt;src/views/folder5/page5.js -->
<g id="edge38" class="edge">
<title>src/views/folder5/page5.js&#45;&gt;src/views/folder5/page5.js</title>
<path fill="none" stroke="#757575" d="M40.28,-336.01C23.18,-344.91 38.42,-354 86,-354 119.45,-354 136.92,-349.51 138.4,-343.74"/>
<polygon fill="#757575" stroke="#757575" points="140.9,-341.29 131.72,-336.01 135.6,-345.86 140.9,-341.29"/>
</g>
<!-- src/views/folder5/page5.scss -->
<g id="node28" class="node">
<title>src/views/folder5/page5.scss</title>
<path fill="none" stroke="#cfffac" d="M454.33,-254C454.33,-254 280.67,-254 280.67,-254 276.83,-254 273,-250.17 273,-246.33 273,-246.33 273,-238.67 273,-238.67 273,-234.83 276.83,-231 280.67,-231 280.67,-231 454.33,-231 454.33,-231 458.17,-231 462,-234.83 462,-238.67 462,-238.67 462,-246.33 462,-246.33 462,-250.17 458.17,-254 454.33,-254"/>
<text text-anchor="middle" x="367.5" y="-238.8" font-family="Arial" font-size="14.00" fill="#cfffac">src/views/folder5/page5.scss</text>
</g>
<!-- src/views/folder5/page5.js&#45;&gt;src/views/folder5/page5.scss -->
<g id="edge37" class="edge">
<title>src/views/folder5/page5.js&#45;&gt;src/views/folder5/page5.scss</title>
<path fill="none" stroke="#757575" d="M104.61,-312.97C127.44,-298.63 168.98,-274.55 208,-262.5 225.41,-257.12 244.32,-253.19 262.82,-250.31"/>
<polygon fill="#757575" stroke="#757575" points="263.35,-253.77 272.74,-248.86 262.34,-246.85 263.35,-253.77"/>
</g>
<!-- src/views/folder6/page6.html -->
<g id="node29" class="node">
<title>src/views/folder6/page6.html</title>
<path fill="none" stroke="#c6c5fe" d="M810.83,-295C810.83,-295 638.17,-295 638.17,-295 634.33,-295 630.5,-291.17 630.5,-287.33 630.5,-287.33 630.5,-279.67 630.5,-279.67 630.5,-275.83 634.33,-272 638.17,-272 638.17,-272 810.83,-272 810.83,-272 814.67,-272 818.5,-275.83 818.5,-279.67 818.5,-279.67 818.5,-287.33 818.5,-287.33 818.5,-291.17 814.67,-295 810.83,-295"/>
<text text-anchor="middle" x="724.5" y="-279.8" font-family="Arial" font-size="14.00" fill="#c6c5fe">src/views/folder6/page6.html</text>
</g>
<!-- src/views/folder6/page6.html&#45;&gt;src/public/images/cat.jpg -->
<g id="edge40" class="edge">
<title>src/views/folder6/page6.html&#45;&gt;src/public/images/cat.jpg</title>
<path fill="none" stroke="#757575" d="M818.71,-278.08C842.94,-281.08 867.43,-288.6 886,-304.5 929.27,-341.55 887.88,-381.89 922,-427.5 936.7,-447.14 959.74,-462.16 979.44,-472.38"/>
<polygon fill="#757575" stroke="#757575" points="978,-475.57 988.51,-476.87 981.1,-469.3 978,-475.57"/>
</g>
<!-- src/views/folder6/page6.js -->
<g id="node30" class="node">
<title>src/views/folder6/page6.js</title>
<path fill="none" stroke="#ff6c60" d="M445.83,-295C445.83,-295 289.17,-295 289.17,-295 285.33,-295 281.5,-291.17 281.5,-287.33 281.5,-287.33 281.5,-279.67 281.5,-279.67 281.5,-275.83 285.33,-272 289.17,-272 289.17,-272 445.83,-272 445.83,-272 449.67,-272 453.5,-275.83 453.5,-279.67 453.5,-279.67 453.5,-287.33 453.5,-287.33 453.5,-291.17 449.67,-295 445.83,-295"/>
<text text-anchor="middle" x="367.5" y="-279.8" font-family="Arial" font-size="14.00" fill="#ff6c60">src/views/folder6/page6.js</text>
</g>
<!-- src/views/folder6/page6.js&#45;&gt;src/public/methods/request.js -->
<g id="edge42" class="edge">
<title>src/views/folder6/page6.js&#45;&gt;src/public/methods/request.js</title>
<path fill="none" stroke="#757575" d="M451.97,-295.1C477.88,-301.73 505.3,-312.14 527,-328.5 551.23,-346.76 537.45,-370.14 563,-386.5 579.49,-397.06 598.9,-403.35 618.42,-406.91"/>
<polygon fill="#757575" stroke="#757575" points="617.88,-410.37 628.31,-408.49 618.98,-403.46 617.88,-410.37"/>
</g>
<!-- src/views/folder6/page6.js&#45;&gt;src/public/images/cat.jpg -->
<g id="edge41" class="edge">
<title>src/views/folder6/page6.js&#45;&gt;src/public/images/cat.jpg</title>
<path fill="none" stroke="#757575" d="M453.55,-272.31C487.53,-268.37 527.05,-264.44 563,-262.5 634.67,-258.64 830.1,-217.48 886,-262.5 944.46,-309.58 879.16,-365.87 922,-427.5 935.91,-447.51 958.71,-462.47 978.49,-472.57"/>
<polygon fill="#757575" stroke="#757575" points="977.09,-475.78 987.61,-477 980.14,-469.48 977.09,-475.78"/>
</g>
<!-- src/views/folder6/page6.js&#45;&gt;src/views/folder6/page6.html -->
<g id="edge45" class="edge">
<title>src/views/folder6/page6.js&#45;&gt;src/views/folder6/page6.html</title>
<path fill="none" stroke="#757575" d="M453.53,-283.5C503.63,-283.5 567.38,-283.5 620.34,-283.5"/>
<polygon fill="#757575" stroke="#757575" points="620.44,-287 630.44,-283.5 620.44,-280 620.44,-287"/>
</g>
<!-- src/views/folder6/page6.js&#45;&gt;src/views/folder6/page6.js -->
<g id="edge44" class="edge">
<title>src/views/folder6/page6.js&#45;&gt;src/views/folder6/page6.js</title>
<path fill="none" stroke="#757575" d="M321.78,-295.01C304.68,-303.91 319.92,-313 367.5,-313 400.95,-313 418.42,-308.51 419.9,-302.74"/>
<polygon fill="#757575" stroke="#757575" points="422.4,-300.29 413.22,-295.01 417.1,-304.86 422.4,-300.29"/>
</g>
<!-- src/views/folder6/page6.scss -->
<g id="node31" class="node">
<title>src/views/folder6/page6.scss</title>
<path fill="none" stroke="#c6c5fe" d="M811.33,-215C811.33,-215 637.67,-215 637.67,-215 633.83,-215 630,-211.17 630,-207.33 630,-207.33 630,-199.67 630,-199.67 630,-195.83 633.83,-192 637.67,-192 637.67,-192 811.33,-192 811.33,-192 815.17,-192 819,-195.83 819,-199.67 819,-199.67 819,-207.33 819,-207.33 819,-211.17 815.17,-215 811.33,-215"/>
<text text-anchor="middle" x="724.5" y="-199.8" font-family="Arial" font-size="14.00" fill="#c6c5fe">src/views/folder6/page6.scss</text>
</g>
<!-- src/views/folder6/page6.js&#45;&gt;src/views/folder6/page6.scss -->
<g id="edge43" class="edge">
<title>src/views/folder6/page6.js&#45;&gt;src/views/folder6/page6.scss</title>
<path fill="none" stroke="#757575" d="M453.86,-281.74C478.35,-278.74 504.49,-273.01 527,-262.5 546.67,-253.32 543.47,-238.97 563,-229.5 580.6,-220.97 600.43,-215.15 620,-211.2"/>
<polygon fill="#757575" stroke="#757575" points="620.69,-214.64 629.88,-209.36 619.41,-207.75 620.69,-214.64"/>
</g>
<!-- src/public/css/some.css -->
<g id="node32" class="node">
<title>src/public/css/some.css</title>
<path fill="none" stroke="#cfffac" d="M1089.83,-215C1089.83,-215 946.17,-215 946.17,-215 942.33,-215 938.5,-211.17 938.5,-207.33 938.5,-207.33 938.5,-199.67 938.5,-199.67 938.5,-195.83 942.33,-192 946.17,-192 946.17,-192 1089.83,-192 1089.83,-192 1093.67,-192 1097.5,-195.83 1097.5,-199.67 1097.5,-199.67 1097.5,-207.33 1097.5,-207.33 1097.5,-211.17 1093.67,-215 1089.83,-215"/>
<text text-anchor="middle" x="1018" y="-199.8" font-family="Arial" font-size="14.00" fill="#cfffac">src/public/css/some.css</text>
</g>
<!-- src/views/folder6/page6.scss&#45;&gt;src/public/css/some.css -->
<g id="edge46" class="edge">
<title>src/views/folder6/page6.scss&#45;&gt;src/public/css/some.css</title>
<path fill="none" stroke="#757575" d="M819.34,-203.5C854.33,-203.5 893.91,-203.5 928.42,-203.5"/>
<polygon fill="#757575" stroke="#757575" points="928.48,-207 938.48,-203.5 928.48,-200 928.48,-207"/>
</g>
</g>
</svg>
